<?xml version="1.0" encoding="utf-8"?>
<!-- Generator: Adobe Illustrator 25.1.0, SVG Export Plug-In . SVG Version: 6.00 Build 0)  -->
<svg version="1.1" xmlns="http://www.w3.org/2000/svg" xmlns:xlink="http://www.w3.org/1999/xlink" x="0px" y="0px"
	 viewBox="0 0 915.395 269" style="enable-background:new 0 0 915.395 269;" xml:space="preserve">
<style type="text/css">
	.st0{fill:none;}
	.st1{fill:#D53F8C;}
</style>
<g id="Layer_1">
	<g>
		<rect x="30.155" y="60.619" class="st0" width="23.681" height="5.92"/>
		<path class="st0" d="M98.83,45.621h-9.867c-1.741,0-3.157,1.417-3.157,3.157s1.417,3.157,3.157,3.157h9.867
			c1.741,0,3.157-1.417,3.157-3.157S100.571,45.621,98.83,45.621z"/>
		<path class="st0" d="M93.897,69.697c-22.307,0-40.455,18.148-40.455,40.455c0,22.307,18.148,40.455,40.455,40.455
			c22.307,0,40.455-18.148,40.455-40.455C134.352,87.845,116.204,69.697,93.897,69.697z M93.897,144.687
			c-19.043,0-34.535-15.492-34.535-34.535c0-19.043,15.492-34.535,34.535-34.535s34.535,15.492,34.535,34.535
			C128.431,129.195,112.939,144.687,93.897,144.687z"/>
		<path class="st0" d="M36.667,146.66c1.633,0,2.96-1.328,2.96-2.96c0-1.633-1.328-2.96-2.96-2.96c-1.633,0-2.96,1.328-2.96,2.96
			C33.707,145.332,35.035,146.66,36.667,146.66z"/>
		
			<ellipse transform="matrix(0.7071 -0.7071 0.7071 0.7071 -50.3874 98.6576)" class="st0" cx="93.896" cy="110.152" rx="28.615" ry="28.615"/>
		<path class="st0" d="M157.638,61.211h-13.814c-0.544,0-0.987,0.443-0.987,0.987v13.814c0,0.544,0.443,0.987,0.987,0.987h13.814
			c0.544,0,0.987-0.443,0.987-0.987V62.198C158.624,61.654,158.182,61.211,157.638,61.211z"/>
		<path class="st0" d="M160.992,47.594h-44.59l-8.288-12.235H79.679l-8.288,12.235H26.8c-4.896,0-8.88,3.983-8.88,8.88v37.298
			h32.591c6.634-17.512,23.577-29.996,43.385-29.996s36.752,12.484,43.385,29.996h32.591V56.475
			C169.872,51.578,165.889,47.594,160.992,47.594z M59.756,72.459H24.235V54.699h35.522V72.459z M98.83,57.856h-9.867
			c-5.006,0-9.078-4.072-9.078-9.078s4.072-9.078,9.078-9.078h9.867c5.006,0,9.078,4.072,9.078,9.078S103.836,57.856,98.83,57.856z
			 M164.545,76.012c0,3.808-3.099,6.907-6.907,6.907h-13.814c-3.808,0-6.907-3.099-6.907-6.907V62.198
			c0-3.808,3.099-6.907,6.907-6.907h13.814c3.808,0,6.907,3.098,6.907,6.907V76.012z"/>
		<path d="M160.992,41.674h-41.45l-8.288-12.235H76.539l-8.288,12.235h-41.45c-8.161,0-14.8,6.639-14.8,14.801V168.96
			c0,8.161,6.639,14.801,14.8,14.801v-5.92c-4.896,0-8.88-3.983-8.88-8.88V99.693h30.79c-0.778,3.362-1.189,6.864-1.189,10.459
			c0,25.571,20.804,46.375,46.375,46.375s46.375-20.804,46.375-46.375c0-3.596-0.411-7.097-1.189-10.459h30.79v69.267
			c0,4.897-3.984,8.88-8.88,8.88v5.92c8.161,0,14.801-6.639,14.801-14.801V56.475C175.793,48.314,169.154,41.674,160.992,41.674z
			 M93.897,150.607c-22.307,0-40.455-18.148-40.455-40.455c0-22.307,18.148-40.455,40.455-40.455s40.455,18.148,40.455,40.455
			C134.352,132.459,116.204,150.607,93.897,150.607z M169.872,93.772h-32.591c-6.634-17.512-23.577-29.996-43.385-29.996
			S57.145,76.261,50.511,93.772H17.92V56.475c0-4.897,3.984-8.88,8.88-8.88h44.591l8.288-12.235h28.434l8.288,12.235h44.59
			c4.896,0,8.88,3.983,8.88,8.88V93.772z"/>
		<rect x="28.576" y="162.447" width="130.64" height="5.92"/>
		<polygon points="146.192,222.439 41.601,222.439 41.601,172.512 35.681,172.512 35.681,228.359 152.112,228.359 152.112,172.512 
			146.192,172.512 		"/>
		<path d="M24.235,72.459h35.522V54.699H24.235V72.459z M30.155,60.619h23.681v5.92H30.155V60.619z"/>
		<path d="M157.638,55.291h-13.814c-3.808,0-6.907,3.099-6.907,6.907v13.814c0,3.808,3.099,6.907,6.907,6.907h13.814
			c3.808,0,6.907-3.099,6.907-6.907V62.198C164.545,58.389,161.446,55.291,157.638,55.291z M158.624,76.012
			c0,0.544-0.443,0.987-0.987,0.987h-13.814c-0.544,0-0.987-0.443-0.987-0.987V62.198c0-0.544,0.443-0.987,0.987-0.987h13.814
			c0.544,0,0.987,0.443,0.987,0.987V76.012z"/>
		<rect x="29.169" y="32.202" width="19.734" height="5.92"/>
		<path d="M36.667,152.58c4.896,0,8.88-3.983,8.88-8.88s-3.984-8.88-8.88-8.88c-4.896,0-8.88,3.983-8.88,8.88
			S31.771,152.58,36.667,152.58z M36.667,140.74c1.633,0,2.96,1.328,2.96,2.96c0,1.633-1.328,2.96-2.96,2.96
			c-1.633,0-2.96-1.328-2.96-2.96C33.707,142.067,35.035,140.74,36.667,140.74z"/>
		<path d="M93.897,75.617c-19.043,0-34.535,15.492-34.535,34.535c0,19.043,15.492,34.535,34.535,34.535s34.535-15.492,34.535-34.535
			C128.431,91.109,112.939,75.617,93.897,75.617z M93.897,138.766c-15.778,0-28.615-12.836-28.615-28.615
			c0-15.778,12.836-28.615,28.615-28.615c15.778,0,28.615,12.836,28.615,28.615C122.511,125.93,109.675,138.766,93.897,138.766z"/>
		<path d="M98.83,39.701h-9.867c-5.006,0-9.078,4.072-9.078,9.078s4.072,9.078,9.078,9.078h9.867c5.006,0,9.078-4.072,9.078-9.078
			S103.836,39.701,98.83,39.701z M98.83,51.936h-9.867c-1.741,0-3.157-1.417-3.157-3.157s1.417-3.157,3.157-3.157h9.867
			c1.741,0,3.157,1.417,3.157,3.157S100.571,51.936,98.83,51.936z"/>
		<polygon points="48.311,172.512 48.311,199.942 139.482,199.942 139.482,172.512 133.562,172.512 133.562,194.022 54.231,194.022 
			54.231,172.512 		"/>
	</g>
</g>
<g id="Layer_2">
	<g>
		<rect x="199.395" y="29.202" class="st0" width="728" height="194.873"/>
		<path class="st1" d="M261.394,145.401c8.8,4.6,20.2,8.399,38.399,8.399c14.8,0,26.199-6.399,32.6-10.399
			c2.8,1.8,3.199,5,3.199,7.399c0,7.2-20.799,23.2-41.398,23.2c-19,0-31.8-8-43.8-16c-7.999,8.6-18.2,13.4-30.199,13.4
			c-16.6,0-29.2-9.4-29.2-17.4c0-11.6,17-21.6,31.4-21.6c8,0,14,1.2,19.399,3.6c4.601-8.8,9-18.999,12.8-29.799
			c-20-6.601-27.199-19-27.199-30.8c0-18,17.799-29.399,29.199-29.399c2.6,0,6.4,4.399,6.4,6.199
			c-4.601,1.801-18.801,7.2-18.801,22.2c0,7.399,2,15.8,14.801,20.6c13.199-31.6,29.6-63.399,63.199-63.399
			c17.6,0,28.599,14.4,28.599,25.8c0,29-41.399,52.999-64.999,52.999c-2.199,0-4.199,0-6-0.2
			C273.793,122.602,268.394,135.001,261.394,145.401z M221.594,145.602c-7.399,0-14.799,2.199-14.799,7.399c0,4,5,6.2,9,6.2
			c7.2,0,13.2-3.8,18.2-10.8C230.193,146.801,226.194,145.602,221.594,145.602z M288.993,98.802c22.999,0,47.8-29.6,47.8-43.399
			c0-6.8-3.601-11-11.2-11c-17.601,0-28.6,26-40.999,54.399C285.993,98.802,287.393,98.802,288.993,98.802z"/>
		<path class="st1" d="M372.993,155.401c-2.6,3.399-15.2,18-21.999,18c-7.4,0-18.2-6.601-18.2-27.601
			c0-28.399,23.8-59.599,44.199-59.599c7.399,0,12.8,5.399,14.8,12.8l3.8-10.2c1.2-0.399,1.8-0.6,17.601-0.6c1.799,0,3,1.6,3,3.8
			c0,2.6-21.601,43.999-21.601,55.199c0,3.399,2.4,4.6,5.2,4.6c7.8,0,16.199-7,18.8-8.399c2,0.399,3.2,3,3.2,5.399
			c0,1.4-0.4,3-1.2,4.2c-1.399,2.4-17.2,19-29.999,19C383.393,172.001,376.193,165.201,372.993,155.401z M357.793,156.001
			c13.801,0,28.2-36.8,28.2-48.399c0-2.6-1.399-5.8-5.2-5.8c-9.6,0-27.399,26.6-27.399,46.199
			C353.394,153.201,354.994,156.001,357.793,156.001z"/>
		<path class="st1" d="M492.59,141.001c1,0,1.4,2.601,1.4,4.2c0,4-2,8-4.4,9.399c-0.799,0.601-2.199,1-3.399,1
			c-5.601,0-11.6-0.399-15.2-4c-3.6,6.4-18.999,21.801-29.999,21.801c-10.2,0-24.999-10.4-24.999-27.8
			c0-35.4,55.199-108.999,61.198-115.198c2.2-0.601,4.8-0.801,10.601-0.801c5.799,0,10.999,2.601,10.999,6.8
			c0,4-23.199,25.2-40.8,56c2.201-0.2,6.4-0.2,9.201-0.2c3.399,0,13.199,4.399,13.199,26.999c0,4.8-1.2,15-3.4,18.6
			c2.2,2.4,9,3.601,13.4,3.601C491.391,141.401,492.19,141.201,492.59,141.001z M434.391,151.801c0,5.2,2.601,7.2,5,7.2
			c7,0,17.2-14.399,22.801-27c-7.201-5.399-10.801-19.6-11.601-25.6C447.991,110.802,434.391,139.001,434.391,151.801z"/>
		<path class="st1" d="M507.391,148.001c0,7.4,6,9.2,14,9.2c14.799,0,29.199-12.4,31.799-13.8c1.8,0.399,3,3,3,5.399
			c0,1.8-0.399,3-1.2,4.2c-1.199,1.4-16.999,19.4-36.599,19.4c-19.4,0-30.6-15.4-30.6-29.601c0-27.799,19.999-55.999,38.999-55.999
			c14.399,0,22.199,12,22.199,20.8c0,16.6-14.999,37.199-28.399,37.199c-2.399,0-10.6-3.8-11.8-6
			C508.19,140.001,507.391,145.602,507.391,148.001z M512.99,123.001c0,3.4,1.2,5.2,4.6,5.2c6.8,0,15.4-11,15.4-19.199
			c0-4.601-1.4-7-4.4-7C522.39,102.002,512.99,114.002,512.99,123.001z"/>
		<path class="st1" d="M552.588,238.8c-8.4,0-15.8-8.8-15.8-17.199c0-17.2,24.399-38,45.199-46.8l6-19c-3.601,3.601-13.8,15-21.4,15
			c-6.199,0-15.8-9.8-15.8-25.399c0-28.399,21.2-57.8,41.6-57.8c7.6,0,14.2,4.601,16.6,12.8l3.601-11.6c3-0.8,7-1.6,14.199-1.6
			c2,0,4.601,2.8,4.8,5c0.2,2.6-22.999,54.799-25.199,68.599c9.8-6.8,22-16,24.8-17.399c1.8,0.399,3,3,3,5.399c0,1.8-0.4,3-1.2,4.2
			c-0.6,0.8-18.6,17.8-33,26.2C593.987,202.2,574.387,238.8,552.588,238.8z M548.987,222.4c0,2.6,1.8,4.399,4.601,4.399
			c7.199,0,21.199-22.399,25.999-38.399C574.987,190.2,548.987,208.2,548.987,222.4z M574.787,154.801
			c11,0,28.399-38.399,28.399-47.399c0-2.6-3-5.399-7.6-5.399c-14.6,0-27.399,35.6-26.6,44.799
			C569.388,152.001,571.188,154.801,574.787,154.801z"/>
		<path class="st1" d="M649.987,154.001c0-7.6,12.6-30.399,22.8-44.399c-3.601,0.8-13.4,1.2-16,1.2
			c-7,21.6-19.399,37.999-24.8,43.399c-3,2.8-8.399-3.4-8.399-5.4c0-2.6,11.199-8.8,22.199-42.599c-0.6-1.2-2.2-3.801-2.2-9.2
			c0-14.8,12.8-23.2,18.8-23.2c4.8,0,7.2,2.2,7.2,6.4c0,3.6-1.8,3.8-1.8,7.2c0,3.8,3.6,6.6,8,6.6c6.199,0,9.399-1.6,13-8
			c1.8,0,3.8,0,5.6,0c3.399,0,7.8,2.8,7.8,7.2c0,7.199-28.199,37.999-28.199,53.799c0,2.6,0.8,4.8,2.8,4.8
			c4.199,0,20.6-7,23.199-8.399c2,0.399,3.2,3,3.2,5.399c0,1.8-0.4,3.2-1.2,4.2c-0.6,1.2-19.8,18.2-35.199,18.2
			C656.987,171.201,649.987,160.801,649.987,154.001z"/>
		<path class="st1" d="M739.186,155.401c-2.6,3.399-15.199,18-21.999,18c-7.4,0-18.2-6.601-18.2-27.601
			c0-28.399,23.8-59.599,44.199-59.599c7.4,0,12.8,5.399,14.8,12.8l3.8-10.2c1.2-0.399,1.8-0.6,17.6-0.6c1.801,0,3,1.6,3,3.8
			c0,2.6-21.6,43.999-21.6,55.199c0,3.399,2.4,4.6,5.2,4.6c7.8,0,16.2-7,18.8-8.399c2,0.399,3.2,3,3.2,5.399c0,1.4-0.4,3-1.2,4.2
			c-1.4,2.4-17.2,19-30,19C749.586,172.001,742.386,165.201,739.186,155.401z M723.986,156.001c13.8,0,28.199-36.8,28.199-48.399
			c0-2.6-1.4-5.8-5.2-5.8c-9.6,0-27.399,26.6-27.399,46.199C719.586,153.201,721.186,156.001,723.986,156.001z"/>
		<path class="st1" d="M846.783,155.401c0-6.801,18.2-40.6,18.2-45c0-1.399-1.601-3-5.4-3c-8.399,0-23.999,34.2-28.6,62.6
			c-8,0-17.999-2.601-17.999-7.4c0-13,19.199-46.199,19.199-52.799c0-2-2.8-3.2-6-3.2c-5.6,0-17.8,19-28.999,63.6
			c-1.801,0.6-4.801,0.8-9.2,0.8c-4.2,0-10.6-1.2-10.6-7.2c0-6.6,16.199-52.199,25.999-76.999c2.4-0.8,3.601-1,11.2-1
			c3.6,0,5.399,0.601,5.6,4.2c0,2-2,6.8-2.8,10.8c4-4,18.6-16,25.2-16c4.399,0,11.6,4.8,11.6,8.601c0,1.8-0.2,4.6-0.4,6.999
			c5-4.399,17.2-15.199,25.2-15.199c4.399,0,12.8,6,12.8,12.8c0,8.6-21.4,37.399-21.4,48.799c0,2.601,1.601,3.601,2.601,3.601
			c4,0,16.8-5.601,19.399-7c2,0.399,3.2,3,3.2,5.399c0,1.8-0.4,3-1.2,4.2c-1.2,1.8-20.399,17-32.399,17.2
			C854.184,170.201,846.783,161.601,846.783,155.401z"/>
	</g>
</g>
</svg>
